<svg width="109px" height="48px" viewBox="0 0 109 48" version="1.1" xmlns="http://www.w3.org/2000/svg" xmlns:xlink="http://www.w3.org/1999/xlink">
    <g id="INTERFACES" stroke="none" stroke-width="1" fill="none" fill-rule="evenodd">
        <g id="Tablette" transform="translate(-54.000000, -37.000000)" fill="#000000">
            <g id="HEADER" transform="translate(-6.000000, 0.000000)">
                <g id="MENU-PRINCIPAL" transform="translate(60.000000, 37.000000)">
                    <g id="LOGO">
                        <g>
                            <path d="M20.2104277,28.8607849 C20.2104277,25.2294848 18.0359327,22.3626575 14.3259691,22.3626575 C10.2328539,22.3626575 8.5066903,25.1022555 8.5066903,28.6063263 L8.5066903,46.891372 L6.60606061e-05,46.891372 L6.60606061e-05,27.1409956 C6.60606061e-05,20.2603028 3.58121152,14.717492 11.3842903,14.717492 C14.7740802,14.717492 18.5470216,16.1828227 20.465862,19.4324348 L20.465862,15.5455793 L28.7159509,15.5455793 L28.7159509,46.891372 L20.2104277,46.891372 L20.2104277,28.8607849 Z" id="Fill-1"></path>
                            <path d="M51.1017103,34.212642 L51.1017103,32.810926 L44.0030578,33.8945688 C41.828783,34.212642 40.1015184,35.4235141 40.1015184,37.8448195 C40.1015184,39.6918382 41.4445305,41.4759002 44.1946335,41.4759002 C47.77688,41.4759002 51.1017103,39.7563303 51.1017103,34.212642 M40.9975204,28.8608946 L48.7358598,27.7145146 C50.526983,27.4591785 51.1017103,26.5674766 51.1017103,25.4840531 C51.1017103,23.2542498 49.3755467,21.4065731 45.794181,21.4065731 C42.0842174,21.4065731 40.0376598,23.7642638 39.7822255,26.5038619 L32.2354618,24.9115212 C32.7472113,20.004857 37.2875568,14.5892755 45.7303224,14.5892755 C55.7067952,14.5892755 59.4167588,20.1965784 59.4167588,26.5038619 L59.4167588,41.9222996 C59.4167588,43.5782549 59.6083345,45.807839 59.7999103,46.8914817 L51.9977123,46.8914817 C51.8052558,46.0633944 51.6775386,44.342947 51.6775386,43.1320749 C50.0788719,45.6172143 47.0735547,47.7831837 42.4043911,47.7831837 C35.6888901,47.7831837 31.5957749,43.260401 31.5957749,38.3537368 C31.5957749,32.7473113 35.7527487,29.6262447 40.9975204,28.8608946" id="Fill-3"></path>
                            <path d="M80.2668513,22.2991306 C75.9819402,22.2991306 72.4007947,25.4204166 72.4007947,31.1549488 C72.4007947,36.8247695 75.9819402,40.0743816 80.2668513,40.0743816 C84.6165018,40.0743816 88.0701503,36.8883842 88.0701503,31.1549488 C88.0701503,25.4204166 84.6165018,22.2991306 80.2668513,22.2991306 L80.2668513,22.2991306 Z M64.1507059,46.8914598 L64.1507059,0.764253316 L72.5285119,0.764253316 L72.5285119,18.9859038 C73.9353826,16.7563198 77.3890311,14.7175797 82.0579745,14.7175797 C91.2670432,14.7175797 96.5756735,21.7891165 96.5756735,31.0913341 C96.5756735,40.5843957 90.692316,47.6559325 81.7375806,47.6559325 C77.3890311,47.6559325 74.0630998,45.7442024 72.4007947,43.0684383 L72.4007947,46.8914598 L64.1507059,46.8914598 Z" id="Fill-6"></path>
                            <path d="M99.4564444,46.8914598 L107.961968,46.8914598 L107.961968,15.5456671 L99.4564444,15.5456671 L99.4564444,46.8914598 Z M103.677277,0 C106.618956,0 108.922929,2.35681333 108.922929,5.2881328 C108.922929,8.09134553 106.618956,10.4481589 103.677277,10.4481589 C100.799677,10.4481589 98.4327253,8.09134553 98.4327253,5.2881328 C98.4327253,2.35681333 100.799677,0 103.677277,0 L103.677277,0 Z" id="Fill-8"></path>
                        </g>
                    </g>
                </g>
            </g>
        </g>
    </g>
</svg>